<mxfile host="Electron" agent="Mozilla/5.0 (Windows NT 10.0; Win64; x64) AppleWebKit/537.36 (KHTML, like Gecko) draw.io/24.7.17 Chrome/128.0.6613.36 Electron/32.0.1 Safari/537.36" version="24.7.17" pages="2">
  <diagram name="PÃ¡gina-1" id="xvdPJZzXykSjWsVucOG7">
    <mxGraphModel dx="1232" dy="1187" grid="1" gridSize="10" guides="1" tooltips="1" connect="1" arrows="1" fold="1" page="1" pageScale="1" pageWidth="827" pageHeight="1169" math="0" shadow="0">
      <root>
        <mxCell id="0" />
        <mxCell id="1" parent="0" />
        <mxCell id="SrUqGEUm0Qm2bccwIqWI-24" value="" style="rounded=0;whiteSpace=wrap;html=1;rotation=90;movable=0;resizable=0;rotatable=0;deletable=0;editable=0;locked=1;connectable=0;" parent="1" vertex="1">
          <mxGeometry x="-65" y="305" width="1060" height="590" as="geometry" />
        </mxCell>
        <mxCell id="r6YeHwrKXm1CLlMDJ4ki-2" value="Recepcionista" style="shape=umlActor;verticalLabelPosition=bottom;verticalAlign=top;html=1;outlineConnect=0;" parent="1" vertex="1">
          <mxGeometry x="96" y="205" width="40" height="80" as="geometry" />
        </mxCell>
        <mxCell id="r6YeHwrKXm1CLlMDJ4ki-5" value="Nueva ficha&amp;nbsp;" style="ellipse;whiteSpace=wrap;html=1;" parent="1" vertex="1">
          <mxGeometry x="217" y="75.5" width="120" height="80" as="geometry" />
        </mxCell>
        <mxCell id="r6YeHwrKXm1CLlMDJ4ki-6" value="Gestion administrativa" style="ellipse;whiteSpace=wrap;html=1;" parent="1" vertex="1">
          <mxGeometry x="217" y="165.5" width="120" height="80" as="geometry" />
        </mxCell>
        <mxCell id="r6YeHwrKXm1CLlMDJ4ki-7" value="Consulta informacion" style="ellipse;whiteSpace=wrap;html=1;" parent="1" vertex="1">
          <mxGeometry x="217" y="255.5" width="120" height="80" as="geometry" />
        </mxCell>
        <mxCell id="r6YeHwrKXm1CLlMDJ4ki-8" value="incidencia cliente" style="ellipse;whiteSpace=wrap;html=1;" parent="1" vertex="1">
          <mxGeometry x="217" y="350" width="120" height="80" as="geometry" />
        </mxCell>
        <mxCell id="r6YeHwrKXm1CLlMDJ4ki-9" value="Peticion de atencion" style="ellipse;whiteSpace=wrap;html=1;" parent="1" vertex="1">
          <mxGeometry x="441" y="350" width="120" height="80" as="geometry" />
        </mxCell>
        <mxCell id="r6YeHwrKXm1CLlMDJ4ki-10" value="Peticion de atencion" style="ellipse;whiteSpace=wrap;html=1;" parent="1" vertex="1">
          <mxGeometry x="441" y="75" width="120" height="80" as="geometry" />
        </mxCell>
        <mxCell id="r6YeHwrKXm1CLlMDJ4ki-11" value="Comerciales&amp;nbsp;" style="ellipse;whiteSpace=wrap;html=1;" parent="1" vertex="1">
          <mxGeometry x="611" y="395" width="120" height="80" as="geometry" />
        </mxCell>
        <mxCell id="r6YeHwrKXm1CLlMDJ4ki-12" value="Mecanicas" style="ellipse;whiteSpace=wrap;html=1;" parent="1" vertex="1">
          <mxGeometry x="611" y="310" width="120" height="80" as="geometry" />
        </mxCell>
        <mxCell id="r6YeHwrKXm1CLlMDJ4ki-13" value="Comercial" style="shape=umlActor;verticalLabelPosition=bottom;verticalAlign=top;html=1;outlineConnect=0;" parent="1" vertex="1">
          <mxGeometry x="96" y="600" width="40" height="80" as="geometry" />
        </mxCell>
        <mxCell id="r6YeHwrKXm1CLlMDJ4ki-14" value="Gestionar peticiones atencion al cliente" style="ellipse;whiteSpace=wrap;html=1;" parent="1" vertex="1">
          <mxGeometry x="223.5" y="480" width="120" height="80" as="geometry" />
        </mxCell>
        <mxCell id="r6YeHwrKXm1CLlMDJ4ki-15" value="Seguimiento clientes" style="ellipse;whiteSpace=wrap;html=1;" parent="1" vertex="1">
          <mxGeometry x="223.5" y="600" width="120" height="80" as="geometry" />
        </mxCell>
        <mxCell id="r6YeHwrKXm1CLlMDJ4ki-16" value="Detalle seguimiento" style="ellipse;whiteSpace=wrap;html=1;" parent="1" vertex="1">
          <mxGeometry x="453.5" y="560" width="120" height="80" as="geometry" />
        </mxCell>
        <mxCell id="r6YeHwrKXm1CLlMDJ4ki-17" value="Generar y enviar oferta especial" style="ellipse;whiteSpace=wrap;html=1;" parent="1" vertex="1">
          <mxGeometry x="453.5" y="640" width="120" height="80" as="geometry" />
        </mxCell>
        <mxCell id="r6YeHwrKXm1CLlMDJ4ki-18" value="Tramite de transaccion" style="ellipse;whiteSpace=wrap;html=1;" parent="1" vertex="1">
          <mxGeometry x="223.5" y="720" width="120" height="80" as="geometry" />
        </mxCell>
        <mxCell id="r6YeHwrKXm1CLlMDJ4ki-19" value="Coordinador&lt;div&gt;taller&lt;/div&gt;" style="shape=umlActor;verticalLabelPosition=bottom;verticalAlign=top;html=1;outlineConnect=0;" parent="1" vertex="1">
          <mxGeometry x="96" y="925" width="40" height="80" as="geometry" />
        </mxCell>
        <mxCell id="r6YeHwrKXm1CLlMDJ4ki-20" value="Gestionar peticiones de atencion al cliente" style="ellipse;whiteSpace=wrap;html=1;" parent="1" vertex="1">
          <mxGeometry x="236.5" y="835" width="120" height="80" as="geometry" />
        </mxCell>
        <mxCell id="r6YeHwrKXm1CLlMDJ4ki-21" value="Ordenes de trabajo" style="ellipse;whiteSpace=wrap;html=1;" parent="1" vertex="1">
          <mxGeometry x="236.5" y="925" width="120" height="80" as="geometry" />
        </mxCell>
        <mxCell id="r6YeHwrKXm1CLlMDJ4ki-22" value="Fecha entrega vehiculo reparados" style="ellipse;whiteSpace=wrap;html=1;" parent="1" vertex="1">
          <mxGeometry x="236.5" y="1015" width="120" height="80" as="geometry" />
        </mxCell>
        <mxCell id="r6YeHwrKXm1CLlMDJ4ki-25" value="Detalle de atencion prestada" style="ellipse;whiteSpace=wrap;html=1;" parent="1" vertex="1">
          <mxGeometry x="486.5" y="835" width="120" height="80" as="geometry" />
        </mxCell>
        <mxCell id="SrUqGEUm0Qm2bccwIqWI-1" value="" style="endArrow=none;html=1;rounded=0;entryX=0;entryY=0.5;entryDx=0;entryDy=0;exitX=0.5;exitY=0.5;exitDx=0;exitDy=0;exitPerimeter=0;" parent="1" source="r6YeHwrKXm1CLlMDJ4ki-2" target="r6YeHwrKXm1CLlMDJ4ki-5" edge="1">
          <mxGeometry width="50" height="50" relative="1" as="geometry">
            <mxPoint x="357" y="295" as="sourcePoint" />
            <mxPoint x="407" y="245" as="targetPoint" />
          </mxGeometry>
        </mxCell>
        <mxCell id="SrUqGEUm0Qm2bccwIqWI-2" value="" style="endArrow=none;html=1;rounded=0;entryX=0;entryY=0.5;entryDx=0;entryDy=0;exitX=0.5;exitY=0.5;exitDx=0;exitDy=0;exitPerimeter=0;" parent="1" source="r6YeHwrKXm1CLlMDJ4ki-2" target="r6YeHwrKXm1CLlMDJ4ki-6" edge="1">
          <mxGeometry width="50" height="50" relative="1" as="geometry">
            <mxPoint x="51" y="255" as="sourcePoint" />
            <mxPoint x="301" y="125" as="targetPoint" />
          </mxGeometry>
        </mxCell>
        <mxCell id="SrUqGEUm0Qm2bccwIqWI-3" value="" style="endArrow=none;html=1;rounded=0;exitX=0.5;exitY=0.5;exitDx=0;exitDy=0;exitPerimeter=0;entryX=0;entryY=0.5;entryDx=0;entryDy=0;" parent="1" source="r6YeHwrKXm1CLlMDJ4ki-2" target="r6YeHwrKXm1CLlMDJ4ki-7" edge="1">
          <mxGeometry width="50" height="50" relative="1" as="geometry">
            <mxPoint x="61" y="265" as="sourcePoint" />
            <mxPoint x="257" y="305" as="targetPoint" />
          </mxGeometry>
        </mxCell>
        <mxCell id="SrUqGEUm0Qm2bccwIqWI-4" value="" style="endArrow=none;html=1;rounded=0;entryX=0;entryY=0.5;entryDx=0;entryDy=0;exitX=0.5;exitY=0.5;exitDx=0;exitDy=0;exitPerimeter=0;" parent="1" source="r6YeHwrKXm1CLlMDJ4ki-2" target="r6YeHwrKXm1CLlMDJ4ki-8" edge="1">
          <mxGeometry width="50" height="50" relative="1" as="geometry">
            <mxPoint x="71" y="275" as="sourcePoint" />
            <mxPoint x="321" y="145" as="targetPoint" />
          </mxGeometry>
        </mxCell>
        <mxCell id="SrUqGEUm0Qm2bccwIqWI-5" value="" style="endArrow=classic;html=1;rounded=0;entryX=0;entryY=0.5;entryDx=0;entryDy=0;exitX=1;exitY=0.5;exitDx=0;exitDy=0;dashed=1;" parent="1" source="r6YeHwrKXm1CLlMDJ4ki-5" target="r6YeHwrKXm1CLlMDJ4ki-10" edge="1">
          <mxGeometry width="50" height="50" relative="1" as="geometry">
            <mxPoint x="357" y="295" as="sourcePoint" />
            <mxPoint x="407" y="245" as="targetPoint" />
          </mxGeometry>
        </mxCell>
        <mxCell id="SrUqGEUm0Qm2bccwIqWI-7" value="" style="endArrow=classic;html=1;rounded=0;entryX=0;entryY=0.5;entryDx=0;entryDy=0;exitX=1;exitY=0.5;exitDx=0;exitDy=0;dashed=1;" parent="1" source="r6YeHwrKXm1CLlMDJ4ki-8" target="r6YeHwrKXm1CLlMDJ4ki-9" edge="1">
          <mxGeometry width="50" height="50" relative="1" as="geometry">
            <mxPoint x="335" y="430" as="sourcePoint" />
            <mxPoint x="439" y="429" as="targetPoint" />
          </mxGeometry>
        </mxCell>
        <mxCell id="SrUqGEUm0Qm2bccwIqWI-9" value="" style="endArrow=none;html=1;rounded=0;entryX=0;entryY=0.5;entryDx=0;entryDy=0;exitX=0.5;exitY=0.5;exitDx=0;exitDy=0;exitPerimeter=0;" parent="1" source="r6YeHwrKXm1CLlMDJ4ki-13" target="r6YeHwrKXm1CLlMDJ4ki-14" edge="1">
          <mxGeometry width="50" height="50" relative="1" as="geometry">
            <mxPoint x="187.5" y="230" as="sourcePoint" />
            <mxPoint x="363.5" y="101" as="targetPoint" />
          </mxGeometry>
        </mxCell>
        <mxCell id="SrUqGEUm0Qm2bccwIqWI-10" value="" style="endArrow=none;html=1;rounded=0;entryX=0;entryY=0.5;entryDx=0;entryDy=0;exitX=0.5;exitY=0.5;exitDx=0;exitDy=0;exitPerimeter=0;" parent="1" source="r6YeHwrKXm1CLlMDJ4ki-13" target="r6YeHwrKXm1CLlMDJ4ki-15" edge="1">
          <mxGeometry width="50" height="50" relative="1" as="geometry">
            <mxPoint x="197.5" y="240" as="sourcePoint" />
            <mxPoint x="373.5" y="111" as="targetPoint" />
          </mxGeometry>
        </mxCell>
        <mxCell id="SrUqGEUm0Qm2bccwIqWI-11" value="" style="endArrow=none;html=1;rounded=0;entryX=0;entryY=0.5;entryDx=0;entryDy=0;exitX=0.5;exitY=0.5;exitDx=0;exitDy=0;exitPerimeter=0;" parent="1" source="r6YeHwrKXm1CLlMDJ4ki-13" target="r6YeHwrKXm1CLlMDJ4ki-18" edge="1">
          <mxGeometry width="50" height="50" relative="1" as="geometry">
            <mxPoint x="207.5" y="250" as="sourcePoint" />
            <mxPoint x="383.5" y="121" as="targetPoint" />
          </mxGeometry>
        </mxCell>
        <mxCell id="SrUqGEUm0Qm2bccwIqWI-12" value="" style="endArrow=classic;html=1;rounded=0;entryX=0;entryY=0.5;entryDx=0;entryDy=0;exitX=1;exitY=0.5;exitDx=0;exitDy=0;dashed=1;" parent="1" source="r6YeHwrKXm1CLlMDJ4ki-15" target="r6YeHwrKXm1CLlMDJ4ki-16" edge="1">
          <mxGeometry width="50" height="50" relative="1" as="geometry">
            <mxPoint x="433.5" y="101" as="sourcePoint" />
            <mxPoint x="537.5" y="100" as="targetPoint" />
          </mxGeometry>
        </mxCell>
        <mxCell id="SrUqGEUm0Qm2bccwIqWI-13" value="" style="endArrow=classic;html=1;rounded=0;entryX=0;entryY=0.5;entryDx=0;entryDy=0;exitX=1;exitY=0.5;exitDx=0;exitDy=0;dashed=1;" parent="1" source="r6YeHwrKXm1CLlMDJ4ki-15" target="r6YeHwrKXm1CLlMDJ4ki-17" edge="1">
          <mxGeometry width="50" height="50" relative="1" as="geometry">
            <mxPoint x="443.5" y="111" as="sourcePoint" />
            <mxPoint x="547.5" y="110" as="targetPoint" />
          </mxGeometry>
        </mxCell>
        <mxCell id="SrUqGEUm0Qm2bccwIqWI-16" value="" style="endArrow=none;html=1;rounded=0;entryX=0;entryY=0.5;entryDx=0;entryDy=0;exitX=0.5;exitY=0.5;exitDx=0;exitDy=0;exitPerimeter=0;" parent="1" source="r6YeHwrKXm1CLlMDJ4ki-19" target="r6YeHwrKXm1CLlMDJ4ki-20" edge="1">
          <mxGeometry width="50" height="50" relative="1" as="geometry">
            <mxPoint x="144.5" y="595" as="sourcePoint" />
            <mxPoint x="240.5" y="475" as="targetPoint" />
          </mxGeometry>
        </mxCell>
        <mxCell id="SrUqGEUm0Qm2bccwIqWI-17" value="" style="endArrow=none;html=1;rounded=0;entryX=0;entryY=0.5;entryDx=0;entryDy=0;exitX=0.5;exitY=0.5;exitDx=0;exitDy=0;exitPerimeter=0;" parent="1" source="r6YeHwrKXm1CLlMDJ4ki-19" target="r6YeHwrKXm1CLlMDJ4ki-21" edge="1">
          <mxGeometry width="50" height="50" relative="1" as="geometry">
            <mxPoint x="154.5" y="605" as="sourcePoint" />
            <mxPoint x="250.5" y="485" as="targetPoint" />
          </mxGeometry>
        </mxCell>
        <mxCell id="SrUqGEUm0Qm2bccwIqWI-18" value="" style="endArrow=none;html=1;rounded=0;entryX=0;entryY=0.5;entryDx=0;entryDy=0;exitX=0.5;exitY=0.5;exitDx=0;exitDy=0;exitPerimeter=0;" parent="1" source="r6YeHwrKXm1CLlMDJ4ki-19" target="r6YeHwrKXm1CLlMDJ4ki-22" edge="1">
          <mxGeometry width="50" height="50" relative="1" as="geometry">
            <mxPoint x="164.5" y="615" as="sourcePoint" />
            <mxPoint x="260.5" y="495" as="targetPoint" />
          </mxGeometry>
        </mxCell>
        <mxCell id="SrUqGEUm0Qm2bccwIqWI-19" value="" style="endArrow=classic;html=1;rounded=0;entryX=0;entryY=0.5;entryDx=0;entryDy=0;exitX=1;exitY=0.5;exitDx=0;exitDy=0;dashed=1;" parent="1" source="r6YeHwrKXm1CLlMDJ4ki-20" target="r6YeHwrKXm1CLlMDJ4ki-25" edge="1">
          <mxGeometry width="50" height="50" relative="1" as="geometry">
            <mxPoint x="376.5" y="874" as="sourcePoint" />
            <mxPoint x="480.5" y="874" as="targetPoint" />
          </mxGeometry>
        </mxCell>
        <mxCell id="SrUqGEUm0Qm2bccwIqWI-21" value="" style="endArrow=block;html=1;rounded=0;exitX=0;exitY=0.5;exitDx=0;exitDy=0;entryX=1;entryY=0.5;entryDx=0;entryDy=0;endFill=0;" parent="1" source="r6YeHwrKXm1CLlMDJ4ki-12" target="r6YeHwrKXm1CLlMDJ4ki-9" edge="1">
          <mxGeometry width="50" height="50" relative="1" as="geometry">
            <mxPoint x="357" y="395" as="sourcePoint" />
            <mxPoint x="407" y="345" as="targetPoint" />
          </mxGeometry>
        </mxCell>
        <mxCell id="SrUqGEUm0Qm2bccwIqWI-22" value="" style="endArrow=block;html=1;rounded=0;exitX=0;exitY=0.5;exitDx=0;exitDy=0;entryX=1;entryY=0.5;entryDx=0;entryDy=0;endFill=0;" parent="1" source="r6YeHwrKXm1CLlMDJ4ki-11" target="r6YeHwrKXm1CLlMDJ4ki-9" edge="1">
          <mxGeometry width="50" height="50" relative="1" as="geometry">
            <mxPoint x="621" y="360" as="sourcePoint" />
            <mxPoint x="571" y="400" as="targetPoint" />
          </mxGeometry>
        </mxCell>
        <mxCell id="SrUqGEUm0Qm2bccwIqWI-23" value="CONCESIONARIO / TALLER VEHICULOS" style="text;html=1;align=center;verticalAlign=middle;resizable=0;points=[];autosize=1;strokeColor=none;fillColor=none;" parent="1" vertex="1">
          <mxGeometry x="275" y="9" width="250" height="30" as="geometry" />
        </mxCell>
        <mxCell id="SrUqGEUm0Qm2bccwIqWI-82" value="&lt;span style=&quot;font-family: Calibri, sans-serif;&quot;&gt;&lt;font style=&quot;font-size: 12px;&quot;&gt;Â«IncludeÂ»&lt;/font&gt;&lt;/span&gt;" style="text;whiteSpace=wrap;html=1;" parent="1" vertex="1">
          <mxGeometry x="358" y="85" width="55.5" height="30" as="geometry" />
        </mxCell>
        <mxCell id="SrUqGEUm0Qm2bccwIqWI-83" value="&lt;span style=&quot;font-family: Calibri, sans-serif;&quot;&gt;&lt;font style=&quot;font-size: 12px;&quot;&gt;Â«IncludeÂ»&lt;/font&gt;&lt;/span&gt;" style="text;whiteSpace=wrap;html=1;" parent="1" vertex="1">
          <mxGeometry x="358" y="360" width="55.5" height="30" as="geometry" />
        </mxCell>
        <mxCell id="SrUqGEUm0Qm2bccwIqWI-84" value="&lt;span style=&quot;font-family: Calibri, sans-serif;&quot;&gt;&lt;font style=&quot;font-size: 12px;&quot;&gt;Â«IncludeÂ»&lt;/font&gt;&lt;/span&gt;" style="text;whiteSpace=wrap;html=1;" parent="1" vertex="1">
          <mxGeometry x="350" y="585" width="55.5" height="30" as="geometry" />
        </mxCell>
        <mxCell id="SrUqGEUm0Qm2bccwIqWI-85" value="&lt;span style=&quot;font-family: Calibri, sans-serif;&quot;&gt;&lt;font style=&quot;font-size: 12px;&quot;&gt;Â«IncludeÂ»&lt;/font&gt;&lt;/span&gt;" style="text;whiteSpace=wrap;html=1;" parent="1" vertex="1">
          <mxGeometry x="401" y="630" width="55.5" height="30" as="geometry" />
        </mxCell>
        <mxCell id="SrUqGEUm0Qm2bccwIqWI-86" value="&lt;span style=&quot;font-family: Calibri, sans-serif;&quot;&gt;&lt;font style=&quot;font-size: 12px;&quot;&gt;Â«IncludeÂ»&lt;/font&gt;&lt;/span&gt;" style="text;whiteSpace=wrap;html=1;" parent="1" vertex="1">
          <mxGeometry x="386" y="844" width="55.5" height="30" as="geometry" />
        </mxCell>
        <mxCell id="q-DdBbYSDduusZjJpQYw-1" value="Registrar detalle de atencion prestada" style="ellipse;whiteSpace=wrap;html=1;" vertex="1" parent="1">
          <mxGeometry x="453.5" y="480" width="120" height="80" as="geometry" />
        </mxCell>
        <mxCell id="q-DdBbYSDduusZjJpQYw-2" value="" style="endArrow=classic;html=1;rounded=0;entryX=0;entryY=0.5;entryDx=0;entryDy=0;exitX=1;exitY=0.5;exitDx=0;exitDy=0;dashed=1;" edge="1" parent="1" target="q-DdBbYSDduusZjJpQYw-1" source="r6YeHwrKXm1CLlMDJ4ki-14">
          <mxGeometry width="50" height="50" relative="1" as="geometry">
            <mxPoint x="350" y="521" as="sourcePoint" />
            <mxPoint x="420" y="650" as="targetPoint" />
          </mxGeometry>
        </mxCell>
        <mxCell id="q-DdBbYSDduusZjJpQYw-3" value="&lt;span style=&quot;font-family: Calibri, sans-serif;&quot;&gt;&lt;font style=&quot;font-size: 12px;&quot;&gt;Â«IncludeÂ»&lt;/font&gt;&lt;/span&gt;" style="text;whiteSpace=wrap;html=1;" vertex="1" parent="1">
          <mxGeometry x="370.5" y="490" width="55.5" height="30" as="geometry" />
        </mxCell>
      </root>
    </mxGraphModel>
  </diagram>
  <diagram id="PmBTp8AdESTPawY5HtnG" name="PÃ¡gina-2">
    <mxGraphModel dx="1232" dy="1187" grid="1" gridSize="10" guides="1" tooltips="1" connect="1" arrows="1" fold="1" page="1" pageScale="1" pageWidth="827" pageHeight="1169" math="0" shadow="0">
      <root>
        <mxCell id="0" />
        <mxCell id="1" parent="0" />
        <mxCell id="XUF-7NhUBjXcuTIhz36J-1" value="" style="rounded=0;whiteSpace=wrap;html=1;rotation=90;movable=0;resizable=0;rotatable=0;deletable=0;editable=0;locked=1;connectable=0;" vertex="1" parent="1">
          <mxGeometry x="825.25" y="112.75" width="889.5" height="758" as="geometry" />
        </mxCell>
        <mxCell id="XUF-7NhUBjXcuTIhz36J-2" value="Usuario" style="shape=umlActor;verticalLabelPosition=bottom;verticalAlign=top;html=1;outlineConnect=0;" vertex="1" parent="1">
          <mxGeometry x="841.5" y="136" width="40" height="80" as="geometry" />
        </mxCell>
        <mxCell id="XUF-7NhUBjXcuTIhz36J-3" value="Darse de alta / Registrarse" style="ellipse;whiteSpace=wrap;html=1;" vertex="1" parent="1">
          <mxGeometry x="898.5" y="90.5" width="120" height="80" as="geometry" />
        </mxCell>
        <mxCell id="XUF-7NhUBjXcuTIhz36J-4" value="Iniciar sesion" style="ellipse;whiteSpace=wrap;html=1;" vertex="1" parent="1">
          <mxGeometry x="898.5" y="180.5" width="120" height="80" as="geometry" />
        </mxCell>
        <mxCell id="XUF-7NhUBjXcuTIhz36J-5" value="Indicar datos personales" style="ellipse;whiteSpace=wrap;html=1;" vertex="1" parent="1">
          <mxGeometry x="1110.5" y="90" width="120" height="80" as="geometry" />
        </mxCell>
        <mxCell id="XUF-7NhUBjXcuTIhz36J-6" value="Identificados" style="shape=umlActor;verticalLabelPosition=bottom;verticalAlign=top;html=1;outlineConnect=0;" vertex="1" parent="1">
          <mxGeometry x="841.5" y="360" width="40" height="80" as="geometry" />
        </mxCell>
        <mxCell id="XUF-7NhUBjXcuTIhz36J-7" value="Participar en debates&amp;nbsp;" style="ellipse;whiteSpace=wrap;html=1;" vertex="1" parent="1">
          <mxGeometry x="1080.5" y="316" width="120" height="80" as="geometry" />
        </mxCell>
        <mxCell id="XUF-7NhUBjXcuTIhz36J-8" value="Modificar datos personales" style="ellipse;whiteSpace=wrap;html=1;" vertex="1" parent="1">
          <mxGeometry x="1080.5" y="410" width="120" height="80" as="geometry" />
        </mxCell>
        <mxCell id="XUF-7NhUBjXcuTIhz36J-9" value="" style="endArrow=none;html=1;rounded=0;entryX=0;entryY=0.5;entryDx=0;entryDy=0;exitX=0.5;exitY=0.5;exitDx=0;exitDy=0;exitPerimeter=0;" edge="1" parent="1" source="XUF-7NhUBjXcuTIhz36J-2" target="XUF-7NhUBjXcuTIhz36J-3">
          <mxGeometry width="50" height="50" relative="1" as="geometry">
            <mxPoint x="1038.5" y="310" as="sourcePoint" />
            <mxPoint x="1088.5" y="260" as="targetPoint" />
          </mxGeometry>
        </mxCell>
        <mxCell id="XUF-7NhUBjXcuTIhz36J-10" value="" style="endArrow=none;html=1;rounded=0;entryX=0;entryY=0.5;entryDx=0;entryDy=0;exitX=0.5;exitY=0.5;exitDx=0;exitDy=0;exitPerimeter=0;" edge="1" parent="1" source="XUF-7NhUBjXcuTIhz36J-2" target="XUF-7NhUBjXcuTIhz36J-4">
          <mxGeometry width="50" height="50" relative="1" as="geometry">
            <mxPoint x="732.5" y="270" as="sourcePoint" />
            <mxPoint x="982.5" y="140" as="targetPoint" />
          </mxGeometry>
        </mxCell>
        <mxCell id="XUF-7NhUBjXcuTIhz36J-11" value="" style="endArrow=classic;html=1;rounded=0;entryX=0;entryY=0.5;entryDx=0;entryDy=0;exitX=1;exitY=0.5;exitDx=0;exitDy=0;dashed=1;" edge="1" parent="1" source="XUF-7NhUBjXcuTIhz36J-3" target="XUF-7NhUBjXcuTIhz36J-5">
          <mxGeometry width="50" height="50" relative="1" as="geometry">
            <mxPoint x="1026.5" y="310" as="sourcePoint" />
            <mxPoint x="1076.5" y="260" as="targetPoint" />
          </mxGeometry>
        </mxCell>
        <mxCell id="XUF-7NhUBjXcuTIhz36J-12" value="" style="endArrow=none;html=1;rounded=0;entryX=0;entryY=0.5;entryDx=0;entryDy=0;exitX=0.5;exitY=0.5;exitDx=0;exitDy=0;exitPerimeter=0;" edge="1" parent="1" source="XUF-7NhUBjXcuTIhz36J-6" target="XUF-7NhUBjXcuTIhz36J-7">
          <mxGeometry width="50" height="50" relative="1" as="geometry">
            <mxPoint x="1091.5" y="1" as="sourcePoint" />
            <mxPoint x="1267.5" y="-128" as="targetPoint" />
          </mxGeometry>
        </mxCell>
        <mxCell id="XUF-7NhUBjXcuTIhz36J-13" value="" style="endArrow=none;html=1;rounded=0;entryX=0;entryY=0.5;entryDx=0;entryDy=0;exitX=0.5;exitY=0.5;exitDx=0;exitDy=0;exitPerimeter=0;" edge="1" parent="1" source="XUF-7NhUBjXcuTIhz36J-6" target="XUF-7NhUBjXcuTIhz36J-8">
          <mxGeometry width="50" height="50" relative="1" as="geometry">
            <mxPoint x="1101.5" y="11" as="sourcePoint" />
            <mxPoint x="1277.5" y="-118" as="targetPoint" />
          </mxGeometry>
        </mxCell>
        <mxCell id="XUF-7NhUBjXcuTIhz36J-14" value="DESARROLLO WEB" style="text;html=1;align=center;verticalAlign=middle;resizable=0;points=[];autosize=1;strokeColor=none;fillColor=none;" vertex="1" parent="1">
          <mxGeometry x="1171" y="9" width="140" height="30" as="geometry" />
        </mxCell>
        <mxCell id="XUF-7NhUBjXcuTIhz36J-15" value="Introducir credenciales&amp;nbsp;" style="ellipse;whiteSpace=wrap;html=1;" vertex="1" parent="1">
          <mxGeometry x="1123" y="180.5" width="120" height="80" as="geometry" />
        </mxCell>
        <mxCell id="XUF-7NhUBjXcuTIhz36J-16" value="" style="endArrow=classic;html=1;rounded=0;entryX=0;entryY=0.5;entryDx=0;entryDy=0;exitX=1;exitY=0.5;exitDx=0;exitDy=0;dashed=1;" edge="1" parent="1" source="XUF-7NhUBjXcuTIhz36J-4" target="XUF-7NhUBjXcuTIhz36J-15">
          <mxGeometry width="50" height="50" relative="1" as="geometry">
            <mxPoint x="1019" y="221.5" as="sourcePoint" />
            <mxPoint x="1089" y="350.5" as="targetPoint" />
          </mxGeometry>
        </mxCell>
        <mxCell id="XUF-7NhUBjXcuTIhz36J-17" value="Pulsar accion de inicio" style="ellipse;whiteSpace=wrap;html=1;" vertex="1" parent="1">
          <mxGeometry x="1359" y="180.5" width="120" height="80" as="geometry" />
        </mxCell>
        <mxCell id="XUF-7NhUBjXcuTIhz36J-18" value="" style="endArrow=classic;html=1;rounded=0;entryX=0;entryY=0.5;entryDx=0;entryDy=0;exitX=1;exitY=0.5;exitDx=0;exitDy=0;dashed=1;" edge="1" parent="1" source="XUF-7NhUBjXcuTIhz36J-15" target="XUF-7NhUBjXcuTIhz36J-17">
          <mxGeometry width="50" height="50" relative="1" as="geometry">
            <mxPoint x="1255" y="221.5" as="sourcePoint" />
            <mxPoint x="1325" y="350.5" as="targetPoint" />
          </mxGeometry>
        </mxCell>
        <mxCell id="XUF-7NhUBjXcuTIhz36J-19" value="&lt;span style=&quot;font-family: Calibri, sans-serif;&quot;&gt;&lt;font style=&quot;font-size: 12px;&quot;&gt;Â«IncludeÂ»&lt;/font&gt;&lt;/span&gt;" style="text;whiteSpace=wrap;html=1;" vertex="1" parent="1">
          <mxGeometry x="1025.25" y="100" width="55.5" height="30" as="geometry" />
        </mxCell>
        <mxCell id="XUF-7NhUBjXcuTIhz36J-20" value="&lt;span style=&quot;font-family: Calibri, sans-serif;&quot;&gt;&lt;font style=&quot;font-size: 12px;&quot;&gt;Â«IncludeÂ»&lt;/font&gt;&lt;/span&gt;" style="text;whiteSpace=wrap;html=1;" vertex="1" parent="1">
          <mxGeometry x="1035.25" y="220" width="55.5" height="30" as="geometry" />
        </mxCell>
        <mxCell id="XUF-7NhUBjXcuTIhz36J-21" value="&lt;span style=&quot;font-family: Calibri, sans-serif;&quot;&gt;&lt;font style=&quot;font-size: 12px;&quot;&gt;Â«IncludeÂ»&lt;/font&gt;&lt;/span&gt;" style="text;whiteSpace=wrap;html=1;" vertex="1" parent="1">
          <mxGeometry x="1263.5" y="190" width="55.5" height="30" as="geometry" />
        </mxCell>
        <mxCell id="XUF-7NhUBjXcuTIhz36J-22" value="" style="endArrow=block;html=1;rounded=0;endFill=0;" edge="1" parent="1">
          <mxGeometry width="50" height="50" relative="1" as="geometry">
            <mxPoint x="862" y="340" as="sourcePoint" />
            <mxPoint x="862" y="260.5" as="targetPoint" />
          </mxGeometry>
        </mxCell>
        <mxCell id="XUF-7NhUBjXcuTIhz36J-23" value="Usuarios&lt;div&gt;iniciales&lt;/div&gt;" style="shape=umlActor;verticalLabelPosition=bottom;verticalAlign=top;html=1;outlineConnect=0;" vertex="1" parent="1">
          <mxGeometry x="710" y="518" width="40" height="80" as="geometry" />
        </mxCell>
        <mxCell id="XUF-7NhUBjXcuTIhz36J-24" value="" style="endArrow=none;html=1;rounded=0;entryX=0;entryY=0.5;entryDx=0;entryDy=0;exitX=0.5;exitY=0.5;exitDx=0;exitDy=0;exitPerimeter=0;" edge="1" parent="1" source="XUF-7NhUBjXcuTIhz36J-23" target="XUF-7NhUBjXcuTIhz36J-27">
          <mxGeometry width="50" height="50" relative="1" as="geometry">
            <mxPoint x="1003.5" y="173.5" as="sourcePoint" />
            <mxPoint x="992.5" y="542.5" as="targetPoint" />
          </mxGeometry>
        </mxCell>
        <mxCell id="XUF-7NhUBjXcuTIhz36J-25" value="" style="endArrow=none;html=1;rounded=0;entryX=0;entryY=0.5;entryDx=0;entryDy=0;exitX=0.5;exitY=0.5;exitDx=0;exitDy=0;exitPerimeter=0;" edge="1" parent="1" source="XUF-7NhUBjXcuTIhz36J-31" target="XUF-7NhUBjXcuTIhz36J-28">
          <mxGeometry width="50" height="50" relative="1" as="geometry">
            <mxPoint x="1010.5" y="829" as="sourcePoint" />
            <mxPoint x="1060.5" y="809" as="targetPoint" />
          </mxGeometry>
        </mxCell>
        <mxCell id="XUF-7NhUBjXcuTIhz36J-26" value="" style="endArrow=block;html=1;rounded=0;endFill=0;" edge="1" parent="1">
          <mxGeometry width="50" height="50" relative="1" as="geometry">
            <mxPoint x="760" y="520" as="sourcePoint" />
            <mxPoint x="820" y="460" as="targetPoint" />
          </mxGeometry>
        </mxCell>
        <mxCell id="XUF-7NhUBjXcuTIhz36J-27" value="Solicitar cambio a grupo usuarios avanzados" style="ellipse;whiteSpace=wrap;html=1;" vertex="1" parent="1">
          <mxGeometry x="908" y="518" width="120" height="80" as="geometry" />
        </mxCell>
        <mxCell id="XUF-7NhUBjXcuTIhz36J-28" value="Generar o iniciar debates" style="ellipse;whiteSpace=wrap;html=1;" vertex="1" parent="1">
          <mxGeometry x="1103.5" y="799" width="120" height="80" as="geometry" />
        </mxCell>
        <mxCell id="XUF-7NhUBjXcuTIhz36J-29" value="Procesar solicitudes de cambio al grupo avanzado" style="ellipse;whiteSpace=wrap;html=1;" vertex="1" parent="1">
          <mxGeometry x="1273" y="507" width="120" height="80" as="geometry" />
        </mxCell>
        <mxCell id="XUF-7NhUBjXcuTIhz36J-30" value="Administradores" style="shape=umlActor;verticalLabelPosition=bottom;verticalAlign=top;html=1;outlineConnect=0;" vertex="1" parent="1">
          <mxGeometry x="766.5" y="692" width="40" height="80" as="geometry" />
        </mxCell>
        <mxCell id="XUF-7NhUBjXcuTIhz36J-31" value="Usuarios&lt;div&gt;avanzados&lt;/div&gt;" style="shape=umlActor;verticalLabelPosition=bottom;verticalAlign=top;html=1;outlineConnect=0;" vertex="1" parent="1">
          <mxGeometry x="840" y="799" width="40" height="80" as="geometry" />
        </mxCell>
        <mxCell id="XUF-7NhUBjXcuTIhz36J-32" value="" style="endArrow=none;html=1;rounded=0;entryX=0;entryY=0.5;entryDx=0;entryDy=0;exitX=0.5;exitY=0.5;exitDx=0;exitDy=0;exitPerimeter=0;" edge="1" parent="1" source="XUF-7NhUBjXcuTIhz36J-30" target="XUF-7NhUBjXcuTIhz36J-29">
          <mxGeometry width="50" height="50" relative="1" as="geometry">
            <mxPoint x="1230" y="629" as="sourcePoint" />
            <mxPoint x="1283" y="499" as="targetPoint" />
          </mxGeometry>
        </mxCell>
        <mxCell id="XUF-7NhUBjXcuTIhz36J-33" value="Denegar cambio grupo" style="ellipse;whiteSpace=wrap;html=1;" vertex="1" parent="1">
          <mxGeometry x="1273" y="599" width="120" height="80" as="geometry" />
        </mxCell>
        <mxCell id="XUF-7NhUBjXcuTIhz36J-34" value="" style="endArrow=none;html=1;rounded=0;entryX=0;entryY=0.5;entryDx=0;entryDy=0;exitX=0.5;exitY=0.5;exitDx=0;exitDy=0;exitPerimeter=0;" edge="1" parent="1" source="XUF-7NhUBjXcuTIhz36J-30" target="XUF-7NhUBjXcuTIhz36J-33">
          <mxGeometry width="50" height="50" relative="1" as="geometry">
            <mxPoint x="1308" y="739" as="sourcePoint" />
            <mxPoint x="1411" y="599" as="targetPoint" />
          </mxGeometry>
        </mxCell>
        <mxCell id="XUF-7NhUBjXcuTIhz36J-35" value="Moderar debates" style="ellipse;whiteSpace=wrap;html=1;" vertex="1" parent="1">
          <mxGeometry x="1273" y="692" width="120" height="80" as="geometry" />
        </mxCell>
        <mxCell id="XUF-7NhUBjXcuTIhz36J-36" value="" style="endArrow=none;html=1;rounded=0;entryX=0;entryY=0.5;entryDx=0;entryDy=0;exitX=0.5;exitY=0.5;exitDx=0;exitDy=0;exitPerimeter=0;" edge="1" parent="1" source="XUF-7NhUBjXcuTIhz36J-30" target="XUF-7NhUBjXcuTIhz36J-35">
          <mxGeometry width="50" height="50" relative="1" as="geometry">
            <mxPoint x="1160" y="829" as="sourcePoint" />
            <mxPoint x="1263" y="689" as="targetPoint" />
          </mxGeometry>
        </mxCell>
        <mxCell id="XUF-7NhUBjXcuTIhz36J-37" value="Eliminar textos inapropiados" style="ellipse;whiteSpace=wrap;html=1;" vertex="1" parent="1">
          <mxGeometry x="1467" y="649" width="120" height="80" as="geometry" />
        </mxCell>
        <mxCell id="XUF-7NhUBjXcuTIhz36J-38" value="Configurar que se deniegue el acceso a determinados usuarios" style="ellipse;whiteSpace=wrap;html=1;" vertex="1" parent="1">
          <mxGeometry x="1467" y="735" width="120" height="80" as="geometry" />
        </mxCell>
        <mxCell id="XUF-7NhUBjXcuTIhz36J-39" value="" style="endArrow=classic;html=1;rounded=0;entryX=1;entryY=0.5;entryDx=0;entryDy=0;dashed=1;exitX=0;exitY=0.5;exitDx=0;exitDy=0;" edge="1" parent="1" source="XUF-7NhUBjXcuTIhz36J-37" target="XUF-7NhUBjXcuTIhz36J-35">
          <mxGeometry width="50" height="50" relative="1" as="geometry">
            <mxPoint x="1480" y="682" as="sourcePoint" />
            <mxPoint x="1520" y="-42" as="targetPoint" />
          </mxGeometry>
        </mxCell>
        <mxCell id="XUF-7NhUBjXcuTIhz36J-40" value="" style="endArrow=classic;html=1;rounded=0;entryX=1;entryY=0.5;entryDx=0;entryDy=0;dashed=1;exitX=0;exitY=0.5;exitDx=0;exitDy=0;" edge="1" parent="1" source="XUF-7NhUBjXcuTIhz36J-38" target="XUF-7NhUBjXcuTIhz36J-35">
          <mxGeometry width="50" height="50" relative="1" as="geometry">
            <mxPoint x="1490" y="692" as="sourcePoint" />
            <mxPoint x="1403" y="742" as="targetPoint" />
          </mxGeometry>
        </mxCell>
        <mxCell id="XUF-7NhUBjXcuTIhz36J-41" value="&lt;span style=&quot;font-family: Calibri, sans-serif;&quot;&gt;&lt;font style=&quot;font-size: 12px;&quot;&gt;Â«ExtendÂ»&lt;/font&gt;&lt;/span&gt;" style="text;whiteSpace=wrap;html=1;" vertex="1" parent="1">
          <mxGeometry x="1410" y="672" width="55.5" height="30" as="geometry" />
        </mxCell>
        <mxCell id="XUF-7NhUBjXcuTIhz36J-42" value="&lt;span style=&quot;font-family: Calibri, sans-serif;&quot;&gt;&lt;font style=&quot;font-size: 12px;&quot;&gt;Â«ExtendÂ»&lt;/font&gt;&lt;/span&gt;" style="text;whiteSpace=wrap;html=1;" vertex="1" parent="1">
          <mxGeometry x="1421.75" y="727" width="55.5" height="30" as="geometry" />
        </mxCell>
        <mxCell id="XUF-7NhUBjXcuTIhz36J-43" value="" style="endArrow=block;html=1;rounded=0;endFill=0;" edge="1" parent="1">
          <mxGeometry width="50" height="50" relative="1" as="geometry">
            <mxPoint x="790" y="650" as="sourcePoint" />
            <mxPoint x="840" y="530" as="targetPoint" />
          </mxGeometry>
        </mxCell>
        <mxCell id="XUF-7NhUBjXcuTIhz36J-44" value="" style="endArrow=block;html=1;rounded=0;endFill=0;" edge="1" parent="1">
          <mxGeometry width="50" height="50" relative="1" as="geometry">
            <mxPoint x="860" y="770" as="sourcePoint" />
            <mxPoint x="860" y="540" as="targetPoint" />
          </mxGeometry>
        </mxCell>
        <mxCell id="XUF-7NhUBjXcuTIhz36J-45" value="Validacion de credenciales" style="ellipse;whiteSpace=wrap;html=1;" vertex="1" parent="1">
          <mxGeometry x="1322.5" y="50" width="120" height="80" as="geometry" />
        </mxCell>
        <mxCell id="XUF-7NhUBjXcuTIhz36J-46" value="Denegar acceso" style="ellipse;whiteSpace=wrap;html=1;" vertex="1" parent="1">
          <mxGeometry x="1520.5" y="90" width="120" height="80" as="geometry" />
        </mxCell>
        <mxCell id="XUF-7NhUBjXcuTIhz36J-47" value="&lt;span style=&quot;font-family: Calibri, sans-serif;&quot;&gt;&lt;font style=&quot;font-size: 12px;&quot;&gt;Â«ExtendÂ»&lt;/font&gt;&lt;/span&gt;" style="text;whiteSpace=wrap;html=1;" vertex="1" parent="1">
          <mxGeometry x="1249" y="75" width="55.5" height="30" as="geometry" />
        </mxCell>
        <mxCell id="XUF-7NhUBjXcuTIhz36J-48" value="" style="endArrow=classic;html=1;rounded=0;entryX=1;entryY=0.5;entryDx=0;entryDy=0;dashed=1;exitX=0;exitY=0.5;exitDx=0;exitDy=0;" edge="1" parent="1" source="XUF-7NhUBjXcuTIhz36J-45" target="XUF-7NhUBjXcuTIhz36J-5">
          <mxGeometry width="50" height="50" relative="1" as="geometry">
            <mxPoint x="1295.25" y="465" as="sourcePoint" />
            <mxPoint x="1221.25" y="508" as="targetPoint" />
          </mxGeometry>
        </mxCell>
        <mxCell id="XUF-7NhUBjXcuTIhz36J-49" value="&lt;span style=&quot;font-family: Calibri, sans-serif;&quot;&gt;&lt;font style=&quot;font-size: 12px;&quot;&gt;Â«ExtendÂ»&lt;/font&gt;&lt;/span&gt;" style="text;whiteSpace=wrap;html=1;" vertex="1" parent="1">
          <mxGeometry x="1299" y="150.5" width="55.5" height="30" as="geometry" />
        </mxCell>
        <mxCell id="XUF-7NhUBjXcuTIhz36J-50" value="" style="endArrow=classic;html=1;rounded=0;entryX=1;entryY=0.5;entryDx=0;entryDy=0;dashed=1;exitX=0;exitY=0.5;exitDx=0;exitDy=0;" edge="1" parent="1" source="XUF-7NhUBjXcuTIhz36J-45" target="XUF-7NhUBjXcuTIhz36J-4">
          <mxGeometry width="50" height="50" relative="1" as="geometry">
            <mxPoint x="1332.5" y="100" as="sourcePoint" />
            <mxPoint x="1240.5" y="140" as="targetPoint" />
            <Array as="points">
              <mxPoint x="1283.5" y="155" />
            </Array>
          </mxGeometry>
        </mxCell>
        <mxCell id="XUF-7NhUBjXcuTIhz36J-51" value="&lt;span style=&quot;font-family: Calibri, sans-serif;&quot;&gt;&lt;font style=&quot;font-size: 12px;&quot;&gt;Â«ExtendÂ»&lt;/font&gt;&lt;/span&gt;" style="text;whiteSpace=wrap;html=1;" vertex="1" parent="1">
          <mxGeometry x="1473.5" y="75" width="55.5" height="30" as="geometry" />
        </mxCell>
        <mxCell id="XUF-7NhUBjXcuTIhz36J-52" value="" style="endArrow=classic;html=1;rounded=0;entryX=1;entryY=0.5;entryDx=0;entryDy=0;dashed=1;exitX=0;exitY=0.5;exitDx=0;exitDy=0;" edge="1" parent="1" source="XUF-7NhUBjXcuTIhz36J-46" target="XUF-7NhUBjXcuTIhz36J-45">
          <mxGeometry width="50" height="50" relative="1" as="geometry">
            <mxPoint x="1534.5" y="80" as="sourcePoint" />
            <mxPoint x="1442.5" y="120" as="targetPoint" />
          </mxGeometry>
        </mxCell>
      </root>
    </mxGraphModel>
  </diagram>
</mxfile>
